<?xml version="1.0" encoding="UTF-8" standalone="no"?>
<svg width="27px" height="27px" viewBox="0 0 27 27" version="1.1" xmlns="http://www.w3.org/2000/svg" xmlns:xlink="http://www.w3.org/1999/xlink">
    <!-- Generator: Sketch 3.8.3 (29802) - http://www.bohemiancoding.com/sketch -->
    <title>Shape</title>
    <desc>Created with Sketch.</desc>
    <defs></defs>
    <g id="修改" stroke="none" stroke-width="1" fill="none" fill-rule="evenodd">
        <g id="2.7-商品详情-失败提示" transform="translate(-120.000000, -528.000000)" fill="#EE3400">
            <g id="Group-42" transform="translate(108.000000, 517.000000)">
                <g id="Group-11">
                    <path d="M25.5,38 C18.0441517,38 12,31.9558483 12,24.5 C12,17.0441517 18.0441517,11 25.5,11 C32.9558483,11 39,17.0441517 39,24.5 C39,31.9558483 32.9558483,38 25.5,38 L25.5,38 Z M33.9487035,16.0512966 C32.8508897,14.9534828 31.5729207,14.0917483 30.1503,13.4900517 C28.6782414,12.8674379 27.113669,12.5517552 25.499969,12.5517552 C23.886269,12.5517552 22.3216655,12.867469 20.8496379,13.4900517 C19.4270483,14.0917793 18.1490793,14.9534828 17.0512655,16.0512966 C15.9534517,17.1491103 15.0917172,18.4270793 14.4900207,19.8497 C13.8674069,21.3217586 13.5517241,22.8863311 13.5517241,24.5000311 C13.5517241,26.113731 13.8674069,27.6783035 14.4900207,29.1503621 C15.0917483,30.5729828 15.9534828,31.8509517 17.0512655,32.9487656 C18.1490793,34.0465483 19.4270483,34.9083138 20.8496379,35.5100104 C22.3216966,36.1326242 23.886269,36.4483069 25.499969,36.4483069 C27.113669,36.4483069 28.6782414,36.1325931 30.1503,35.5100104 C31.5729207,34.9082828 32.8508897,34.0465483 33.9487035,32.9487656 C35.0465173,31.8509518 35.9082518,30.5729828 36.5099483,29.1503621 C37.1325621,27.6783035 37.4482449,26.113731 37.4482449,24.5000311 C37.4482449,22.8863311 37.1325621,21.3217276 36.5099483,19.849669 C35.9082517,18.4270483 35.0465173,17.1491103 33.9487035,16.0512966 L33.9487035,16.0512966 Z M24.7241379,32.4245311 L26.2758621,32.4245311 L26.2758621,20.9417724 L24.7241379,20.9417724 L24.7241379,32.4245311 L24.7241379,32.4245311 Z M24.7241379,19.0581965 L26.2758621,19.0581965 L26.2758621,16.5754379 L24.7241379,16.5754379 L24.7241379,19.0581965 L24.7241379,19.0581965 Z" id="Shape" transform="translate(25.500000, 24.500000) scale(1, -1) translate(-25.500000, -24.500000) "></path>
                </g>
            </g>
        </g>
    </g>
</svg>